<?xml version="1.0" encoding="utf-8"?>
<!-- Generator: Adobe Illustrator 17.0.0, SVG Export Plug-In . SVG Version: 6.00 Build 0)  -->
<!DOCTYPE svg PUBLIC "-//W3C//DTD SVG 1.1//EN" "http://www.w3.org/Graphics/SVG/1.1/DTD/svg11.dtd">
<svg version="1.1" id="Layer_1" xmlns="http://www.w3.org/2000/svg" xmlns:xlink="http://www.w3.org/1999/xlink" x="0px" y="0px"
	 width="84px" height="84.003px" viewBox="0 0 84 84.003" enable-background="new 0 0 84 84.003" xml:space="preserve">
<g>
	<linearGradient id="SVGID_1_" gradientUnits="userSpaceOnUse" x1="56.6112" y1="62.6488" x2="56.6112" y2="46.5679">
		<stop  offset="0" style="stop-color:#1DA1B6"/>
		<stop  offset="1" style="stop-color:#28BDD5"/>
	</linearGradient>
	<path fill="url(#SVGID_1_)" d="M62.617,52.704c-1.364-0.012-2.729-0.003-4.093-0.004c-0.097,0-0.194,0-0.318,0
		c0-0.129,0-0.227,0-0.325c0-1.264,0.01-2.529-0.004-3.793c-0.013-1.18-0.827-2.022-1.917-2.015
		c-1.04,0.006-1.757,0.809-1.775,2.004c-0.01,0.646-0.002,1.292-0.003,1.937c0,0.717,0,1.435,0,2.191c-0.137,0-0.236,0-0.334,0
		c-1.182,0.001-2.365-0.003-3.547,0.003c-0.79,0.004-1.374,0.382-1.76,1.052c-0.637,1.106-0.126,2.272,1.114,2.55
		c0.29,0.065,0.595,0.08,0.893,0.083c1.1,0.009,2.201,0.004,3.302,0.004c0.104,0,0.209,0,0.333,0c0,0.142,0,0.241,0,0.339
		c0,1.246-0.002,2.492,0.002,3.738c0.001,0.208,0.016,0.419,0.048,0.624c0.123,0.776,0.65,1.361,1.346,1.51
		c0.783,0.167,1.517-0.139,1.96-0.815c0.248-0.378,0.342-0.798,0.342-1.243c0-1.282,0-2.565,0-3.847c0-0.096,0-0.193,0-0.305
		c1.441,0,2.842-0.003,4.242,0.003c0.205,0.001,0.415,0.092,0.613,0.066c0.81-0.106,1.433-0.686,1.545-1.401
		C64.802,53.801,63.895,52.715,62.617,52.704z"/>
	<linearGradient id="SVGID_2_" gradientUnits="userSpaceOnUse" x1="42" y1="83.4279" x2="42" y2="0.575">
		<stop  offset="0" style="stop-color:#1DA1B6"/>
		<stop  offset="1" style="stop-color:#28BDD5"/>
	</linearGradient>
	<path fill="url(#SVGID_2_)" d="M42,0.575c-22.879,0-41.426,18.547-41.426,41.426S19.121,83.428,42,83.428
		c22.879,0,41.427-18.547,41.427-41.426S64.879,0.575,42,0.575z M49.158,67.934c-1.67,0.328-3.354,0.536-5.051,0.675
		c-2.595,0.212-5.195,0.362-7.795,0.274c-2.825-0.095-5.647-0.303-8.467-0.507c-2.739-0.198-5.466-0.52-8.171-0.996
		c-0.964-0.17-1.912-0.43-2.868-0.648c-0.529-0.121-0.861-0.452-1.003-0.968c-0.121-0.437-0.246-0.875-0.327-1.32
		c-0.098-0.543-0.151-1.094-0.223-1.641c0-0.619,0-1.237,0-1.856c0.014-0.061,0.034-0.122,0.04-0.184
		c0.079-0.832,0.14-1.667,0.238-2.497c0.165-1.397,0.713-2.6,1.919-3.399c0.633-0.419,1.287-0.849,1.993-1.108
		c1.464-0.538,2.961-0.987,4.457-1.432c1.65-0.49,3.169-1.214,4.486-2.336c0.791-0.674,1.355-1.496,1.417-2.551
		c0.045-0.767,0-1.546-0.072-2.313c-0.068-0.731-0.421-1.342-0.981-1.831c-0.459-0.401-0.893-0.83-1.36-1.222
		c-0.385-0.323-0.677-0.706-0.899-1.151c-0.447-0.898-0.806-1.828-0.997-2.816c-0.036-0.186-0.135-0.25-0.291-0.336
		c-0.313-0.171-0.627-0.367-0.884-0.612c-0.563-0.539-0.816-1.258-1.026-1.987c-0.385-1.333-0.083-2.554,0.657-3.684
		c0.122-0.186,0.187-0.355,0.188-0.573c0.007-2.061,0.236-4.095,0.656-6.116c0.438-2.111,1.208-4.044,2.638-5.694
		c1.841-2.123,4.136-3.397,6.914-3.798c0.619-0.089,1.244-0.142,1.866-0.212c0.327,0,0.655,0,0.982,0
		c0.08,0.014,0.159,0.037,0.24,0.041c1.227,0.058,2.412,0.321,3.565,0.73c3.519,1.248,5.92,3.599,7.038,7.194
		c0.807,2.596,1.251,5.248,1.17,7.975c-0.005,0.173,0.033,0.3,0.166,0.43c0.392,0.383,0.639,0.854,0.76,1.391
		c0.167,0.746,0.07,1.487-0.066,2.22c-0.231,1.242-0.845,2.211-2.04,2.747c-0.081,0.036-0.152,0.148-0.179,0.239
		c-0.138,0.461-0.236,0.935-0.393,1.389c-0.359,1.035-0.78,2.033-1.66,2.768c-0.226,0.189-0.388,0.481-0.515,0.755
		c-0.164,0.352-0.285,0.727-0.388,1.103c-0.228,0.836-0.577,1.602-1.138,2.271c-0.221,0.264-0.406,0.559-0.592,0.85
		c-1.421,2.221-2.24,4.636-2.32,7.283c-0.041,1.335,0.172,2.644,0.448,3.946c0.524,2.473,1.671,4.592,3.507,6.34
		c1.263,1.203,2.698,2.149,4.241,2.945c0.089,0.046,0.177,0.096,0.318,0.172C49.242,67.913,49.201,67.926,49.158,67.934z
		 M56.57,66.883c-6.758-0.028-12.228-5.529-12.196-12.239c0.032-7.003,5.751-12.156,12.251-12.136
		c6.75,0.021,12.152,5.469,12.122,12.191C68.718,61.454,63.264,66.911,56.57,66.883z"/>
</g>
</svg>
