<?xml version="1.0" encoding="utf-8"?>
<!-- Generator: Adobe Illustrator 17.0.0, SVG Export Plug-In . SVG Version: 6.00 Build 0)  -->
<!DOCTYPE svg PUBLIC "-//W3C//DTD SVG 1.1//EN" "http://www.w3.org/Graphics/SVG/1.1/DTD/svg11.dtd">
<svg version="1.1" id="Layer_1" xmlns="http://www.w3.org/2000/svg" xmlns:xlink="http://www.w3.org/1999/xlink" x="0px" y="0px"
	 width="84px" height="84.003px" viewBox="0 0 84 84.003" enable-background="new 0 0 84 84.003" xml:space="preserve">
<g>
	<path fill="#05748E" d="M42,0.575c-22.879,0-41.426,18.547-41.426,41.426S19.121,83.428,42,83.428
		c22.879,0,41.427-18.547,41.427-41.426S64.879,0.575,42,0.575z M52.431,64.193c-8.408,0.018-16.817-0.005-25.226,0.013
		c-2.488,0.005-4.086-1.168-4.917-3.47c0-12.481,0-24.962,0-37.442c0.912-2.615,2.81-3.521,5.496-3.496
		c8.092,0.074,16.185,0.025,24.278,0.028c3.608,0.001,5.046,1.695,5.342,5.294c0.22,2.683-1.837,3.494-3.356,4.988
		c0-1.267,0-2.533,0-3.8c0-0.553-0.019-1.106,0.004-1.658c0.046-1.119-0.524-1.563-1.591-1.558
		c-2.566,0.013-5.132,0.004-7.698,0.004c-5.763,0-11.527-0.002-17.291,0.001c-1.666,0.001-1.904,0.241-1.904,1.927
		c-0.002,11.33-0.002,22.66,0,33.989c0,1.656,0.26,1.914,1.924,1.915c8.211,0.003,16.422,0.002,24.633,0
		c1.622,0,1.921-0.304,1.922-1.938c0.003-3.513,0.033-7.027-0.021-10.54c-0.014-0.944,0.234-1.615,0.937-2.262
		c0.712-0.656,1.252-1.498,1.868-2.259c0.145,0.11,0.289,0.22,0.434,0.33c0.022,0.332,0.063,0.665,0.063,0.997
		c0.004,4.658,0.007,9.316,0.001,13.975C57.327,62.363,55.553,64.186,52.431,64.193z M39.733,47.997c0,1,0,2.002,0,3.08
		c-3.825,0-7.628,0-11.482,0c0-1.04,0-2.014,0-3.08C32.059,47.997,35.856,47.997,39.733,47.997z M28.286,43.622
		c0-1.042,0-2.072,0-3.165c3.813,0,7.577,0,11.434,0c0,1.024,0,2.025,0,3.165C35.908,43.622,32.141,43.622,28.286,43.622z
		 M28.296,54.854c7.646,0,15.309,0,23.065,0c0,1.067,0,2.036,0,3.077c-7.698,0-15.333,0-23.065,0
		C28.296,56.939,28.296,55.941,28.296,54.854z M42.239,50.391c0.722-2.093,1.372-3.978,2.015-5.841
		c1.281,1.307,2.501,2.552,3.788,3.864C46.239,49.029,44.383,49.661,42.239,50.391z M43.604,36.498c-4.659,0-9.317,0-13.976,0
		c-0.427,0-0.853,0-1.364,0c0-3.479,0-6.851,0-10.351c7.725,0,15.372,0,23.165,0c0,2.191,0.017,4.348-0.022,6.504
		c-0.005,0.256-0.281,0.54-0.489,0.755C47.922,36.501,47.919,36.499,43.604,36.498z M49.599,46.941
		c-1.378-1.378-2.654-2.654-3.975-3.976c6.675-6.434,13.4-12.916,19.964-19.243c1.38,1.26,2.712,2.475,4.123,3.763
		C62.947,34.028,56.264,40.493,49.599,46.941z"/>
	<path fill="#05748E" d="M31.502,33.14c5.569,0,11.062,0,16.57,0c0-1.279,0-2.477,0-3.659c-5.581,0-11.075,0-16.57,0
		C31.502,30.751,31.502,31.919,31.502,33.14z"/>
</g>
</svg>
