<?xml version="1.0" encoding="utf-8"?>
<!-- Generator: Adobe Illustrator 17.0.0, SVG Export Plug-In . SVG Version: 6.00 Build 0)  -->
<!DOCTYPE svg PUBLIC "-//W3C//DTD SVG 1.1//EN" "http://www.w3.org/Graphics/SVG/1.1/DTD/svg11.dtd">
<svg version="1.1" id="Layer_1" xmlns="http://www.w3.org/2000/svg" xmlns:xlink="http://www.w3.org/1999/xlink" x="0px" y="0px"
	 width="170px" height="50px" viewBox="0 0 170 50" enable-background="new 0 0 170 50" xml:space="preserve">
<g>
	<polygon fill="#808080" points="153.744,3.608 155.993,3.608 155.993,10.194 156.96,10.194 156.96,3.608 159.221,3.608 
		159.221,2.796 153.744,2.796 	"/>
	<path fill="#808080" d="M166.939,2.796h-1.218l-1.317,3.578c-0.329,0.933-0.593,1.745-0.779,2.491h-0.033
		c-0.187-0.768-0.439-1.581-0.746-2.491l-1.262-3.578h-1.218l-0.516,7.398h0.911l0.198-3.172c0.066-1.109,0.121-2.349,0.142-3.271
		h0.022c0.208,0.878,0.505,1.833,0.856,2.876l1.197,3.523h0.724l1.306-3.589c0.373-1.021,0.68-1.943,0.932-2.81h0.033
		c-0.011,0.922,0.055,2.162,0.11,3.194l0.187,3.249h0.933L166.939,2.796z"/>
	<polygon fill="#808080" points="3.688,28.157 12.872,28.157 12.872,27.205 3.688,27.205 3.688,18.158 14.64,18.158 14.64,17.205 
		2.6,17.205 2.6,39.654 14.98,39.654 14.98,38.701 3.688,38.701 	"/>
	<path fill="#808080" d="M25.454,22.988c-2.652,0-4.897,1.36-5.918,2.109l0.544,0.815c1.021-0.815,2.993-1.973,5.307-1.973
		c3.4,0,4.081,2.926,4.013,5.578c-7.347,0.816-10.68,2.518-10.68,6.156c0,3.095,2.177,4.388,4.694,4.388
		c2.177,0,4.217-1.225,5.918-2.585h0.067l0.137,2.177h0.884V29.11C30.42,25.845,29.264,22.988,25.454,22.988z M29.399,36.321
		c-2.177,1.837-3.945,2.789-5.918,2.789s-3.673-0.952-3.673-3.47c0-2.789,2.448-4.421,9.591-5.237V36.321z"/>
	<path fill="#808080" d="M40.145,30.607c-1.973-0.749-3.945-1.564-3.945-3.47c0-1.599,1.225-3.197,3.945-3.197
		c1.7,0,2.857,0.681,3.945,1.497l0.612-0.816c-1.156-0.952-2.857-1.633-4.489-1.633c-3.334,0-5.103,1.973-5.103,4.218
		c0,2.789,2.789,3.741,5.307,4.626c1.904,0.68,4.081,1.632,4.081,3.809c0,1.837-1.429,3.47-4.149,3.47
		c-2.449,0-3.945-0.952-5.306-2.109l-0.681,0.816c1.429,1.225,3.47,2.245,5.918,2.245c3.401,0,5.306-2.108,5.306-4.489
		C45.587,32.375,42.73,31.593,40.145,30.607z"/>
	<path fill="#808080" d="M56.06,34.075c-0.476,1.36-1.021,3.129-1.564,4.558H54.36c-0.612-1.429-1.293-3.197-1.837-4.558
		l-4.149-10.68h-1.156l6.734,16.666l-0.477,1.496c-0.884,2.653-2.313,4.626-4.354,4.626c-0.476,0-1.021-0.136-1.36-0.272
		l-0.271,0.953c0.407,0.204,1.02,0.34,1.564,0.34c2.789,0,4.421-2.721,5.237-5.238l6.53-18.57h-1.088L56.06,34.075z"/>
	<path fill="#808080" d="M64.747,45.571h69.563l17.004-34.781H64.747V45.571z M102.277,39.654h-2.789V23.124h2.789V39.654z
		 M116.526,15.437h2.789v21.088c0,0.884,0.374,1.225,0.782,1.225c0.17,0,0.306,0,0.612-0.068l0.374,2.108
		c-0.374,0.17-0.851,0.272-1.599,0.272c-2.108,0-2.959-1.326-2.959-3.741V15.437z M107.854,15.437h2.789v21.088
		c0,0.884,0.374,1.225,0.782,1.225c0.17,0,0.306,0,0.612-0.068l0.374,2.108c-0.374,0.17-0.851,0.272-1.599,0.272
		c-2.108,0-2.959-1.326-2.959-3.741V15.437z M100.917,16.117c1.088,0,1.938,0.714,1.938,1.803c0,1.055-0.851,1.803-1.938,1.803
		c-1.089,0-1.939-0.748-1.939-1.803C98.977,16.831,99.828,16.117,100.917,16.117z M73.745,17.342l2.347,12.142
		c0.442,2.415,0.884,4.796,1.326,7.211h0.137c0.476-2.415,1.02-4.83,1.564-7.211l3.095-12.142h2.585l3.095,12.142
		c0.511,2.348,1.055,4.796,1.599,7.211h0.137c0.441-2.415,0.85-4.83,1.258-7.211l2.347-12.142h2.755l-4.625,22.312h-3.436
		L84.56,26.219c-0.374-1.734-0.748-3.333-1.055-5.068H83.37c-0.374,1.735-0.748,3.334-1.122,5.068l-3.333,13.435h-3.367
		L70.82,17.342H73.745z"/>
</g>
</svg>
