<?xml version="1.0" encoding="utf-8"?>
<!-- Generator: Adobe Illustrator 17.0.0, SVG Export Plug-In . SVG Version: 6.00 Build 0)  -->
<!DOCTYPE svg PUBLIC "-//W3C//DTD SVG 1.1//EN" "http://www.w3.org/Graphics/SVG/1.1/DTD/svg11.dtd">
<svg version="1.1" xmlns="http://www.w3.org/2000/svg" xmlns:xlink="http://www.w3.org/1999/xlink" x="0px" y="0px" width="470px"
	 height="132.318px" viewBox="0 0 470 132.318" enable-background="new 0 0 470 132.318" xml:space="preserve">
<g id="Layer_1">
</g>
<g id="Layer_2">
	<rect x="185.419" y="13.142" fill="#FFFFFF" width="274.99" height="46.716"/>
	<polygon fill="#808080" points="181.919,56.594 181.919,56.594 2.592,56.594 2.592,56.594 22.592,16.406 22.592,16.406 
		181.919,16.406 181.919,16.406 	"/>
	<g>
		<path fill="#808080" d="M467.408,66.858h-288.99V6.142h288.99V66.858z M185.419,59.858h274.99V13.142h-274.99V59.858z"/>
	</g>
	<g>
		<path fill="#FFFFFF" d="M35.642,43.526l-5.275-13.069h-0.078c0.052,0.8,0.078,1.62,0.078,2.459v10.61h-0.949V29.373h1.529
			l5.015,12.449h0.059l5.015-12.449h1.491v14.153h-0.998V32.8c0-0.749,0.039-1.523,0.116-2.323h-0.077l-5.295,13.05H35.642z"/>
		<path fill="#FFFFFF" d="M53.464,43.526l-0.242-1.665h-0.077c-0.529,0.678-1.073,1.156-1.632,1.438
			c-0.558,0.28-1.218,0.421-1.979,0.421c-1.032,0-1.836-0.265-2.41-0.794c-0.575-0.529-0.862-1.262-0.862-2.197
			c0-1.026,0.428-1.823,1.283-2.392c0.855-0.567,2.093-0.868,3.713-0.9l2.004-0.058v-0.697c0-1-0.203-1.755-0.61-2.266
			c-0.406-0.51-1.062-0.765-1.965-0.765c-0.975,0-1.984,0.271-3.03,0.813l-0.358-0.833c1.155-0.542,2.298-0.813,3.427-0.813
			c1.155,0,2.019,0.3,2.59,0.9c0.571,0.6,0.857,1.536,0.857,2.807v7H53.464z M49.592,42.849c1.123,0,2.009-0.321,2.657-0.964
			c0.648-0.642,0.973-1.534,0.973-2.677v-1.035l-1.839,0.077c-1.479,0.071-2.532,0.302-3.161,0.692s-0.944,0.999-0.944,1.824
			c0,0.659,0.202,1.17,0.605,1.535C48.287,42.666,48.856,42.849,49.592,42.849z"/>
		<path fill="#FFFFFF" d="M59.311,38.908l5.373-5.905h1.161l-4.144,4.492l4.502,6.031h-1.152l-3.998-5.315l-1.723,1.568v3.747
			h-0.959V28.463h0.959v7.551l-0.068,2.895H59.311z"/>
		<path fill="#FFFFFF" d="M73.008,43.72c-1.529,0-2.722-0.471-3.577-1.413s-1.282-2.263-1.282-3.96c0-1.678,0.413-3.021,1.239-4.032
			c0.825-1.01,1.938-1.515,3.34-1.515c1.239,0,2.217,0.433,2.933,1.297c0.717,0.865,1.075,2.04,1.075,3.524v0.774h-7.58
			c0.013,1.445,0.35,2.549,1.012,3.311c0.661,0.762,1.608,1.143,2.841,1.143c0.601,0,1.128-0.042,1.583-0.126
			s1.031-0.265,1.728-0.542v0.871c-0.594,0.258-1.142,0.435-1.646,0.527C74.17,43.673,73.615,43.72,73.008,43.72z M72.728,33.651
			c-1.014,0-1.827,0.334-2.44,1.002c-0.612,0.668-0.971,1.632-1.074,2.89h6.506c0-1.22-0.265-2.173-0.794-2.86
			S73.664,33.651,72.728,33.651z"/>
		<path fill="#FFFFFF" d="M84.614,33.003h0.987l2.227,5.905c0.678,1.813,1.107,3.037,1.288,3.669h0.058
			c0.271-0.832,0.713-2.074,1.326-3.727l2.227-5.848h0.987L89,45.23c-0.381,0.994-0.7,1.666-0.959,2.014
			c-0.258,0.349-0.56,0.61-0.905,0.784c-0.345,0.175-0.763,0.262-1.253,0.262c-0.368,0-0.778-0.067-1.229-0.203v-0.833
			c0.374,0.104,0.777,0.155,1.21,0.155c0.329,0,0.619-0.077,0.871-0.232s0.479-0.396,0.683-0.721
			c0.203-0.326,0.438-0.843,0.707-1.55c0.268-0.706,0.44-1.166,0.518-1.379L84.614,33.003z"/>
		<path fill="#FFFFFF" d="M104.972,38.25c0,1.717-0.416,3.058-1.249,4.022c-0.832,0.965-1.981,1.447-3.446,1.447
			c-0.923,0-1.736-0.223-2.439-0.668s-1.242-1.084-1.616-1.917c-0.375-0.832-0.562-1.794-0.562-2.885
			c0-1.717,0.416-3.055,1.248-4.013c0.833-0.958,1.976-1.438,3.428-1.438c1.445,0,2.58,0.485,3.402,1.457
			C104.561,35.229,104.972,36.56,104.972,38.25z M96.667,38.25c0,1.446,0.317,2.573,0.953,3.384c0.636,0.81,1.534,1.215,2.696,1.215
			s2.061-0.405,2.696-1.215c0.636-0.811,0.953-1.938,0.953-3.384c0-1.452-0.321-2.578-0.963-3.379c-0.643-0.8-1.544-1.2-2.706-1.2
			c-1.161,0-2.057,0.398-2.687,1.195C96.981,35.664,96.667,36.792,96.667,38.25z"/>
		<path fill="#FFFFFF" d="M109.512,33.003v6.815c0,1.059,0.223,1.828,0.668,2.309c0.445,0.481,1.136,0.722,2.071,0.722
			c1.252,0,2.174-0.316,2.764-0.949c0.591-0.632,0.886-1.661,0.886-3.088v-5.809h0.949v10.523h-0.813l-0.174-1.452h-0.059
			c-0.684,1.097-1.9,1.646-3.649,1.646c-2.395,0-3.592-1.281-3.592-3.844v-6.873H109.512z"/>
		<path fill="#FFFFFF" d="M125.31,32.8c0.445,0,0.923,0.045,1.433,0.136l-0.184,0.919c-0.439-0.109-0.895-0.164-1.365-0.164
			c-0.897,0-1.633,0.381-2.207,1.143s-0.861,1.723-0.861,2.885v5.809h-0.959V33.003h0.813l0.097,1.897h0.067
			c0.433-0.774,0.895-1.318,1.385-1.631C124.019,32.956,124.613,32.8,125.31,32.8z"/>
		<path fill="#FFFFFF" d="M144.032,43.526l-2.305-7.038c-0.148-0.478-0.339-1.178-0.57-2.101h-0.059l-0.203,0.716l-0.436,1.404
			l-2.343,7.019h-0.949l-3.011-10.523h1.026l1.685,6.099c0.394,1.511,0.651,2.621,0.774,3.331h0.059
			c0.38-1.511,0.658-2.514,0.832-3.011l2.169-6.419h0.871l2.062,6.399c0.465,1.517,0.749,2.521,0.853,3.011h0.058
			c0.052-0.42,0.31-1.543,0.774-3.369l1.607-6.041h0.968l-2.855,10.523H144.032z"/>
		<path fill="#FFFFFF" d="M150.613,30.079c0-0.619,0.204-0.929,0.61-0.929c0.2,0,0.356,0.08,0.47,0.241
			c0.112,0.162,0.169,0.391,0.169,0.688c0,0.291-0.057,0.52-0.169,0.688c-0.113,0.168-0.27,0.252-0.47,0.252
			C150.817,31.019,150.613,30.705,150.613,30.079z M151.708,43.526h-0.959V33.003h0.959V43.526z"/>
		<path fill="#FFFFFF" d="M156.983,43.526h-0.959V28.463h0.959V43.526z"/>
		<path fill="#FFFFFF" d="M162.258,43.526h-0.959V28.463h0.959V43.526z"/>
	</g>
	<g>
		<path fill="#4D4E4E" d="M204.658,40.411c0,1.33-0.488,2.384-1.466,3.161s-2.276,1.166-3.896,1.166
			c-1.947,0-3.44-0.214-4.479-0.643v-1.112c1.147,0.487,2.612,0.73,4.393,0.73c1.308,0,2.345-0.3,3.111-0.899s1.15-1.386,1.15-2.359
			c0-0.604-0.127-1.103-0.382-1.499c-0.254-0.396-0.668-0.757-1.242-1.084s-1.417-0.68-2.529-1.058
			c-1.627-0.56-2.752-1.164-3.373-1.814s-0.932-1.517-0.932-2.6c0-1.191,0.467-2.164,1.4-2.916s2.135-1.128,3.603-1.128
			c1.497,0,2.902,0.283,4.218,0.851l-0.403,0.959c-1.322-0.553-2.587-0.829-3.793-0.829c-1.177,0-2.114,0.273-2.812,0.818
			c-0.698,0.545-1.047,1.286-1.047,2.223c0,0.589,0.107,1.072,0.321,1.45c0.215,0.378,0.565,0.718,1.052,1.019
			c0.487,0.302,1.323,0.664,2.507,1.085c1.243,0.429,2.177,0.845,2.802,1.248s1.081,0.861,1.368,1.373
			C204.514,39.065,204.658,39.685,204.658,40.411z"/>
		<path fill="#4D4E4E" d="M210.882,43.779c0.683,0,1.278-0.058,1.787-0.175v0.872c-0.523,0.175-1.126,0.262-1.81,0.262
			c-1.046,0-1.818-0.279-2.315-0.839c-0.498-0.56-0.747-1.438-0.747-2.638V33.61h-1.755v-0.633l1.755-0.49l0.545-2.682h0.556v2.867
			h3.478v0.938h-3.478v7.499c0,0.908,0.16,1.58,0.479,2.016C209.698,43.562,210.199,43.779,210.882,43.779z"/>
		<path fill="#4D4E4E" d="M222.424,44.521l-0.272-1.875h-0.088c-0.596,0.764-1.208,1.303-1.836,1.619
			c-0.629,0.315-1.372,0.474-2.229,0.474c-1.162,0-2.067-0.298-2.714-0.894s-0.97-1.421-0.97-2.475c0-1.155,0.481-2.053,1.444-2.691
			c0.962-0.64,2.355-0.978,4.18-1.014l2.256-0.065v-0.785c0-1.126-0.229-1.977-0.687-2.551c-0.458-0.573-1.195-0.86-2.213-0.86
			c-1.097,0-2.234,0.305-3.411,0.915l-0.403-0.938c1.301-0.61,2.587-0.915,3.858-0.915c1.301,0,2.272,0.338,2.916,1.014
			c0.643,0.676,0.964,1.729,0.964,3.16v7.881H222.424z M218.064,43.758c1.265,0,2.262-0.361,2.992-1.085
			c0.73-0.723,1.096-1.728,1.096-3.014v-1.166l-2.071,0.087c-1.664,0.08-2.851,0.34-3.559,0.779
			c-0.709,0.439-1.063,1.125-1.063,2.055c0,0.741,0.227,1.317,0.681,1.728C216.594,43.553,217.236,43.758,218.064,43.758z"/>
		<path fill="#4D4E4E" d="M231.721,32.443c0.502,0,1.039,0.052,1.613,0.153l-0.207,1.035c-0.494-0.123-1.007-0.186-1.537-0.186
			c-1.01,0-1.838,0.429-2.484,1.286c-0.647,0.857-0.971,1.94-0.971,3.248v6.54h-1.079V32.673h0.916l0.108,2.136h0.077
			c0.486-0.872,1.006-1.483,1.559-1.836C230.268,32.62,230.937,32.443,231.721,32.443z"/>
		<path fill="#4D4E4E" d="M238.873,43.779c0.683,0,1.278-0.058,1.787-0.175v0.872c-0.523,0.175-1.126,0.262-1.81,0.262
			c-1.046,0-1.818-0.279-2.315-0.839c-0.498-0.56-0.747-1.438-0.747-2.638V33.61h-1.755v-0.633l1.755-0.49l0.545-2.682h0.556v2.867
			h3.478v0.938h-3.478v7.499c0,0.908,0.16,1.58,0.479,2.016C237.688,43.562,238.189,43.779,238.873,43.779z"/>
		<path fill="#4D4E4E" d="M250.567,41.436c0,1.062-0.403,1.877-1.21,2.447s-1.951,0.855-3.434,0.855
			c-1.584,0-2.841-0.243-3.771-0.73v-1.166c1.191,0.596,2.448,0.894,3.771,0.894c1.17,0,2.059-0.194,2.665-0.583
			s0.91-0.906,0.91-1.553c0-0.596-0.241-1.098-0.725-1.504c-0.483-0.407-1.277-0.807-2.382-1.199
			c-1.185-0.429-2.017-0.798-2.496-1.106s-0.841-0.657-1.084-1.046c-0.244-0.389-0.365-0.863-0.365-1.423
			c0-0.887,0.372-1.588,1.117-2.104s1.785-0.774,3.123-0.774c1.278,0,2.492,0.24,3.64,0.72l-0.403,0.981
			c-1.162-0.48-2.241-0.72-3.236-0.72c-0.967,0-1.733,0.16-2.3,0.479c-0.567,0.32-0.851,0.763-0.851,1.33
			c0,0.617,0.22,1.111,0.659,1.482c0.439,0.37,1.299,0.784,2.578,1.242c1.068,0.385,1.846,0.732,2.332,1.041
			c0.487,0.309,0.853,0.659,1.096,1.052S250.567,40.905,250.567,41.436z"/>
		<path fill="#4D4E4E" d="M263.821,33.61h-2.79v10.91h-1.079V33.61h-2.201v-0.633l2.201-0.403v-0.915
			c0-1.453,0.268-2.52,0.802-3.199c0.533-0.68,1.407-1.02,2.621-1.02c0.654,0,1.308,0.099,1.962,0.295l-0.251,0.938
			c-0.581-0.182-1.159-0.272-1.732-0.272c-0.844,0-1.441,0.249-1.793,0.746c-0.353,0.498-0.529,1.307-0.529,2.426v1.101h2.79V33.61z
			"/>
		<path fill="#4D4E4E" d="M270.775,32.443c0.502,0,1.039,0.052,1.613,0.153l-0.207,1.035c-0.494-0.123-1.007-0.186-1.537-0.186
			c-1.01,0-1.838,0.429-2.484,1.286c-0.647,0.857-0.971,1.94-0.971,3.248v6.54h-1.079V32.673h0.916l0.108,2.136h0.077
			c0.486-0.872,1.006-1.483,1.559-1.836C269.322,32.62,269.991,32.443,270.775,32.443z"/>
		<path fill="#4D4E4E" d="M284.595,38.58c0,1.934-0.469,3.442-1.406,4.529c-0.937,1.086-2.23,1.629-3.88,1.629
			c-1.039,0-1.955-0.25-2.747-0.752c-0.792-0.501-1.398-1.221-1.819-2.158c-0.422-0.938-0.633-2.02-0.633-3.248
			c0-1.933,0.469-3.438,1.406-4.518s2.224-1.619,3.858-1.619c1.628,0,2.904,0.547,3.831,1.641S284.595,36.677,284.595,38.58z
			 M275.244,38.58c0,1.628,0.357,2.897,1.073,3.81s1.728,1.368,3.036,1.368c1.308,0,2.319-0.456,3.035-1.368s1.073-2.182,1.073-3.81
			c0-1.635-0.361-2.902-1.084-3.804c-0.724-0.901-1.738-1.352-3.047-1.352c-1.308,0-2.315,0.448-3.024,1.346
			C275.598,35.668,275.244,36.938,275.244,38.58z"/>
		<path fill="#4D4E4E" d="M302.678,44.521v-7.771c0-1.155-0.226-1.998-0.676-2.528s-1.141-0.796-2.07-0.796
			c-1.214,0-2.111,0.334-2.692,1.003c-0.582,0.668-0.872,1.719-0.872,3.149v6.943h-1.101v-8.099c0-1.998-0.916-2.997-2.747-2.997
			c-1.242,0-2.147,0.361-2.714,1.084c-0.567,0.724-0.851,1.881-0.851,3.472v6.54h-1.079V32.673h0.895L289,34.297h0.065
			c0.327-0.589,0.792-1.045,1.396-1.368c0.603-0.323,1.268-0.485,1.994-0.485c1.867,0,3.066,0.702,3.597,2.104h0.044
			c0.385-0.676,0.902-1.195,1.553-1.56c0.65-0.363,1.39-0.545,2.219-0.545c1.293,0,2.263,0.346,2.91,1.036
			c0.646,0.69,0.97,1.787,0.97,3.291v7.75H302.678z"/>
	</g>
	<g>
		<path fill="#00738D" d="M34.232,108.056c0,1.509-0.554,2.704-1.663,3.586c-1.109,0.883-2.583,1.323-4.42,1.323
			c-2.209,0-3.904-0.243-5.083-0.729v-1.261c1.302,0.552,2.963,0.828,4.983,0.828c1.484,0,2.661-0.34,3.53-1.021
			c0.87-0.68,1.305-1.572,1.305-2.677c0-0.685-0.145-1.251-0.433-1.7c-0.289-0.449-0.759-0.859-1.41-1.23
			c-0.651-0.371-1.608-0.771-2.869-1.199c-1.847-0.635-3.122-1.321-3.827-2.06c-0.705-0.737-1.057-1.721-1.057-2.949
			c0-1.352,0.53-2.454,1.589-3.308s2.422-1.279,4.087-1.279c1.698,0,3.293,0.321,4.786,0.964l-0.458,1.089
			c-1.5-0.627-2.935-0.94-4.303-0.94c-1.335,0-2.399,0.31-3.19,0.928s-1.187,1.459-1.187,2.522c0,0.668,0.122,1.216,0.365,1.645
			s0.641,0.814,1.193,1.156c0.552,0.342,1.5,0.752,2.844,1.23c1.41,0.486,2.469,0.958,3.178,1.416
			c0.709,0.457,1.226,0.977,1.552,1.558S34.232,107.231,34.232,108.056z"/>
		<path fill="#00738D" d="M43.172,112.965c-1.954,0-3.477-0.602-4.569-1.805c-1.092-1.204-1.638-2.89-1.638-5.058
			c0-2.144,0.527-3.86,1.583-5.15s2.478-1.936,4.266-1.936c1.583,0,2.832,0.553,3.747,1.657s1.373,2.604,1.373,4.501v0.989h-9.683
			c0.017,1.847,0.447,3.256,1.292,4.229c0.845,0.974,2.055,1.46,3.629,1.46c0.767,0,1.44-0.054,2.021-0.161
			c0.582-0.107,1.317-0.338,2.208-0.692v1.113c-0.759,0.329-1.459,0.554-2.102,0.674C44.656,112.905,43.947,112.965,43.172,112.965z
			 M42.814,100.105c-1.294,0-2.333,0.427-3.116,1.28s-1.241,2.083-1.373,3.691h8.31c0-1.559-0.338-2.776-1.014-3.654
			S44.009,100.105,42.814,100.105z"/>
		<path fill="#00738D" d="M57.393,112.965c-2.069,0-3.578-0.774-4.526-2.324H52.78l0.037,1.038c0.033,0.61,0.049,1.278,0.049,2.004
			v5.119h-1.224V99.276h1.039l0.235,1.917h0.074c0.923-1.451,2.399-2.177,4.427-2.177c1.813,0,3.196,0.596,4.148,1.787
			s1.428,2.924,1.428,5.199c0,2.21-0.5,3.922-1.502,5.139C60.49,112.357,59.124,112.965,57.393,112.965z M57.368,111.877
			c1.376,0,2.442-0.511,3.196-1.533s1.131-2.453,1.131-4.291c0-3.949-1.426-5.923-4.278-5.923c-1.566,0-2.716,0.431-3.45,1.292
			s-1.101,2.265-1.101,4.21v0.396c0,2.102,0.353,3.603,1.058,4.501C54.629,111.428,55.777,111.877,57.368,111.877z"/>
		<path fill="#00738D" d="M66.469,111.753c0-0.808,0.33-1.212,0.989-1.212c0.676,0,1.014,0.404,1.014,1.212
			c0,0.809-0.338,1.212-1.014,1.212C66.799,112.965,66.469,112.562,66.469,111.753z"/>
		<path fill="#00738D" d="M94.824,103.653c0,2.869-0.717,5.139-2.152,6.808c-1.435,1.67-3.413,2.504-5.936,2.504
			c-2.515,0-4.489-0.834-5.923-2.504c-1.434-1.669-2.151-3.946-2.151-6.832c0-2.877,0.723-5.142,2.17-6.795
			c1.447-1.652,3.423-2.479,5.93-2.479c2.522,0,4.497,0.831,5.923,2.492S94.824,100.776,94.824,103.653z M80.034,103.653
			c0,2.589,0.577,4.59,1.731,6.004c1.154,1.414,2.812,2.121,4.971,2.121c2.176,0,3.839-0.701,4.99-2.103
			c1.15-1.401,1.725-3.408,1.725-6.022c0-2.604-0.575-4.602-1.725-5.991c-1.15-1.389-2.805-2.083-4.965-2.083
			c-2.152,0-3.811,0.7-4.978,2.102C80.617,99.083,80.034,101.073,80.034,103.653z"/>
		<path fill="#00738D" d="M103.665,100.34h-3.166v12.378h-1.224V100.34h-2.498v-0.718l2.498-0.457v-1.039
			c0-1.648,0.303-2.858,0.909-3.629c0.606-0.771,1.597-1.156,2.974-1.156c0.742,0,1.484,0.111,2.226,0.334l-0.285,1.063
			c-0.66-0.206-1.315-0.31-1.966-0.31c-0.956,0-1.634,0.282-2.034,0.848c-0.4,0.564-0.6,1.481-0.6,2.751v1.249h3.166V100.34z
			 M111.257,100.34h-3.166v12.378h-1.224V100.34h-2.498v-0.718l2.498-0.457v-1.039c0-1.648,0.303-2.858,0.909-3.629
			s1.597-1.156,2.974-1.156c0.742,0,1.484,0.111,2.226,0.334l-0.284,1.063c-0.66-0.206-1.315-0.31-1.966-0.31
			c-0.957,0-1.634,0.282-2.034,0.848c-0.4,0.564-0.6,1.481-0.6,2.751v1.249h3.166V100.34z"/>
		<path fill="#00738D" d="M119.295,112.965c-1.954,0-3.477-0.602-4.569-1.805c-1.092-1.204-1.638-2.89-1.638-5.058
			c0-2.144,0.527-3.86,1.583-5.15s2.478-1.936,4.266-1.936c1.583,0,2.832,0.553,3.747,1.657s1.373,2.604,1.373,4.501v0.989h-9.683
			c0.017,1.847,0.447,3.256,1.292,4.229c0.845,0.974,2.055,1.46,3.629,1.46c0.767,0,1.44-0.054,2.021-0.161
			c0.582-0.107,1.317-0.338,2.208-0.692v1.113c-0.759,0.329-1.459,0.554-2.102,0.674
			C120.779,112.905,120.07,112.965,119.295,112.965z M118.937,100.105c-1.294,0-2.333,0.427-3.116,1.28s-1.241,2.083-1.373,3.691
			h8.31c0-1.559-0.338-2.776-1.014-3.654S120.132,100.105,118.937,100.105z"/>
		<path fill="#00738D" d="M133.058,99.017c0.569,0,1.179,0.058,1.83,0.173l-0.235,1.175c-0.561-0.14-1.142-0.21-1.744-0.21
			c-1.146,0-2.085,0.486-2.819,1.459s-1.101,2.201-1.101,3.686v7.419h-1.224V99.276h1.039l0.124,2.424h0.086
			c0.552-0.989,1.142-1.684,1.768-2.084C131.409,99.217,132.168,99.017,133.058,99.017z"/>
		<path fill="#00738D" d="M158.613,112.718h-15.426v-3.245l5.539-5.6c1.64-1.681,2.712-2.846,3.215-3.494
			c0.503-0.649,0.865-1.251,1.087-1.804c0.222-0.554,0.332-1.127,0.332-1.721c0-0.886-0.244-1.545-0.732-1.978
			c-0.487-0.433-1.139-0.649-1.954-0.649c-0.855,0-1.686,0.196-2.49,0.589c-0.806,0.393-1.646,0.951-2.521,1.676l-2.536-3.004
			c1.087-0.926,1.987-1.58,2.702-1.962c0.714-0.383,1.495-0.677,2.339-0.884c0.846-0.206,1.791-0.309,2.838-0.309
			c1.379,0,2.596,0.251,3.652,0.754c1.057,0.504,1.877,1.208,2.461,2.113c0.584,0.906,0.875,1.942,0.875,3.109
			c0,1.017-0.178,1.97-0.535,2.86s-0.912,1.804-1.66,2.739c-0.75,0.937-2.07,2.27-3.963,4l-2.838,2.672v0.211h9.615V112.718z"/>
		<path fill="#00738D" d="M168.862,98.62c2.133,0,3.831,0.599,5.095,1.796c1.263,1.198,1.894,2.838,1.894,4.921
			c0,2.466-0.76,4.362-2.279,5.69s-3.692,1.992-6.521,1.992c-2.455,0-4.438-0.397-5.946-1.192v-4.03
			c0.794,0.423,1.721,0.768,2.777,1.034c1.056,0.267,2.058,0.4,3.003,0.4c2.848,0,4.271-1.168,4.271-3.502
			c0-2.224-1.474-3.336-4.422-3.336c-0.534,0-1.122,0.053-1.767,0.158c-0.644,0.105-1.167,0.219-1.569,0.34l-1.856-0.996
			l0.83-11.245h11.97v3.955h-7.879l-0.408,4.332l0.528-0.106C167.197,98.69,167.957,98.62,168.862,98.62z"/>
		<path fill="#00738D" d="M188.68,97.231c0,2.314-0.448,4.053-1.344,5.215s-2.209,1.743-3.939,1.743
			c-1.66,0-2.943-0.596-3.849-1.788c-0.906-1.192-1.358-2.916-1.358-5.17c0-4.599,1.735-6.897,5.207-6.897
			c1.7,0,3.006,0.596,3.917,1.788C188.224,93.314,188.68,95.018,188.68,97.231z M181.994,97.262c0,1.278,0.113,2.231,0.339,2.86
			c0.227,0.629,0.592,0.943,1.095,0.943c0.966,0,1.449-1.268,1.449-3.804c0-2.516-0.483-3.773-1.449-3.773
			c-0.503,0-0.868,0.31-1.095,0.928C182.107,95.035,181.994,95.983,181.994,97.262z M199.065,90.65l-12.241,22.067h-3.623
			l12.241-22.067H199.065z M204.136,106.046c0,2.305-0.448,4.038-1.344,5.2s-2.209,1.743-3.939,1.743
			c-1.66,0-2.943-0.596-3.849-1.788c-0.906-1.192-1.358-2.911-1.358-5.155c0-4.598,1.735-6.897,5.207-6.897
			c1.7,0,3.006,0.596,3.917,1.788C203.68,102.13,204.136,103.833,204.136,106.046z M197.45,106.076c0,1.278,0.113,2.231,0.34,2.86
			c0.226,0.629,0.591,0.943,1.094,0.943c0.966,0,1.449-1.268,1.449-3.804c0-2.516-0.483-3.773-1.449-3.773
			c-0.503,0-0.868,0.31-1.094,0.929C197.563,103.851,197.45,104.799,197.45,106.076z"/>
		<path fill="#00738D" d="M225.033,105.979c0,2.193-0.531,3.905-1.595,5.138s-2.531,1.849-4.402,1.849
			c-1.179,0-2.218-0.284-3.116-0.853c-0.898-0.569-1.587-1.386-2.065-2.449c-0.478-1.063-0.717-2.291-0.717-3.685
			c0-2.192,0.531-3.901,1.595-5.126c1.063-1.224,2.522-1.836,4.378-1.836c1.847,0,3.295,0.62,4.347,1.861
			C224.507,102.118,225.033,103.818,225.033,105.979z M214.423,105.979c0,1.847,0.405,3.287,1.218,4.321
			c0.812,1.035,1.96,1.553,3.443,1.553c1.484,0,2.632-0.518,3.444-1.553c0.812-1.034,1.218-2.475,1.218-4.321
			c0-1.854-0.41-3.293-1.23-4.315s-1.972-1.533-3.456-1.533c-1.483,0-2.628,0.509-3.432,1.526
			C214.825,102.675,214.423,104.115,214.423,105.979z"/>
		<path fill="#00738D" d="M233.751,100.34h-3.165v12.378h-1.225V100.34h-2.498v-0.718l2.498-0.457v-1.039
			c0-1.648,0.303-2.858,0.909-3.629c0.605-0.771,1.597-1.156,2.974-1.156c0.742,0,1.484,0.111,2.226,0.334l-0.284,1.063
			c-0.659-0.206-1.315-0.31-1.966-0.31c-0.957,0-1.635,0.282-2.034,0.848c-0.4,0.564-0.6,1.481-0.6,2.751v1.249h3.165V100.34z
			 M241.343,100.34h-3.166v12.378h-1.224V100.34h-2.498v-0.718l2.498-0.457v-1.039c0-1.648,0.303-2.858,0.908-3.629
			c0.606-0.771,1.598-1.156,2.975-1.156c0.742,0,1.483,0.111,2.226,0.334l-0.284,1.063c-0.66-0.206-1.315-0.31-1.967-0.31
			c-0.956,0-1.634,0.282-2.034,0.848c-0.399,0.564-0.6,1.481-0.6,2.751v1.249h3.166V100.34z"/>
		<path fill="#00738D" d="M269.327,103.753c0,1.879-0.374,3.388-1.119,4.525c-0.747,1.138-1.759,1.707-3.036,1.707
			c-0.734,0-1.329-0.223-1.787-0.668c-0.457-0.445-0.724-1.051-0.798-1.818h-0.049c-0.354,0.825-0.866,1.445-1.533,1.861
			c-0.668,0.417-1.447,0.625-2.338,0.625c-1.22,0-2.163-0.398-2.831-1.193c-0.668-0.796-1.002-1.911-1.002-3.346
			c0-1.665,0.497-3.027,1.49-4.086c0.993-1.06,2.289-1.59,3.889-1.59c1.138,0,2.316,0.17,3.537,0.508l-0.272,5.737v0.371
			c0,0.857,0.145,1.502,0.433,1.935c0.289,0.434,0.767,0.649,1.435,0.649c0.85,0,1.544-0.479,2.084-1.44
			c0.54-0.96,0.81-2.211,0.81-3.753c0-1.6-0.325-3.001-0.977-4.204c-0.651-1.204-1.581-2.129-2.789-2.776
			c-1.207-0.647-2.586-0.971-4.136-0.971c-1.896,0-3.567,0.41-5.015,1.23c-1.446,0.82-2.56,1.98-3.339,3.48
			c-0.778,1.501-1.168,3.224-1.168,5.169c0,2.655,0.688,4.705,2.064,6.152c1.377,1.446,3.331,2.17,5.861,2.17
			c0.768,0,1.544-0.074,2.331-0.223s1.742-0.437,2.863-0.865v1.225c-1.674,0.659-3.381,0.989-5.12,0.989
			c-2.877,0-5.119-0.827-6.727-2.479c-1.607-1.653-2.411-3.951-2.411-6.895c0-2.11,0.447-4.008,1.342-5.694
			c0.895-1.686,2.159-2.994,3.796-3.926s3.485-1.397,5.546-1.397c1.772,0,3.341,0.367,4.705,1.101s2.416,1.783,3.153,3.147
			C268.958,100.375,269.327,101.956,269.327,103.753z M256.107,105.422c0,1.179,0.227,2.065,0.681,2.659
			c0.453,0.593,1.17,0.89,2.151,0.89c2.103,0,3.228-1.426,3.376-4.278l0.197-3.599c-0.65-0.223-1.446-0.334-2.386-0.334
			c-1.229,0-2.206,0.423-2.931,1.268C256.47,102.873,256.107,104.004,256.107,105.422z"/>
	</g>
	<g>
		<path fill="#4D4E4E" d="M312.585,28.51h15.375c0.086,0.011,0.13,0.055,0.13,0.13v1.463c0,0.087-0.044,0.13-0.13,0.13h-5.786v0.13
			c0.823,0.444,1.463,1.354,1.918,2.73l0.064,0.472h3.804c0.086,0.011,0.13,0.054,0.13,0.13v1.463c0,0.087-0.044,0.13-0.13,0.13
			h-3.657c0,1.636-1.002,3.229-3.007,4.778c-1.776,1.019-3.039,1.527-3.786,1.527c0,0.043-0.044,0.064-0.131,0.064l8.257,10.694
			v0.13h-3.137c-0.032,0-3.224-4.139-9.572-12.416V40h0.991c3.51,0,5.617-1.262,6.322-3.787c0.043-0.303,0.064-0.547,0.064-0.731
			v-0.194h-7.72c-0.087,0-0.13-0.043-0.13-0.13v-1.463c0.011-0.087,0.054-0.13,0.13-0.13h7.655
			c-0.261-0.986-0.813-1.788-1.658-2.405c-1.17-0.618-2.237-0.927-3.201-0.927h-2.796c-0.087,0-0.13-0.043-0.13-0.13V28.64
			C312.465,28.553,312.508,28.51,312.585,28.51z"/>
		<path fill="#4D4E4E" d="M354.122,52.4h-18.299v-2.723l7.331-7.369c2.234-2.26,3.707-3.872,4.418-4.837s1.244-1.904,1.6-2.818
			c0.354-0.914,0.533-1.897,0.533-2.951c0-1.485-0.451-2.663-1.353-3.532c-0.901-0.87-2.151-1.305-3.751-1.305
			c-1.155,0-2.25,0.19-3.285,0.571c-1.034,0.381-2.187,1.073-3.456,2.075l-1.676-2.151c2.564-2.133,5.357-3.199,8.379-3.199
			c2.615,0,4.665,0.67,6.15,2.009c1.485,1.34,2.228,3.14,2.228,5.398c0,1.765-0.495,3.511-1.485,5.236
			c-0.989,1.727-2.844,3.91-5.56,6.551l-6.094,5.96v0.152h14.319V52.4z"/>
		<path fill="#4D4E4E" d="M376.572,38.442c0,4.812-0.759,8.404-2.275,10.778s-3.837,3.561-6.96,3.561
			c-2.996,0-5.274-1.216-6.836-3.646s-2.342-5.995-2.342-10.692c0-4.849,0.755-8.447,2.266-10.797
			c1.511-2.348,3.814-3.522,6.912-3.522c3.021,0,5.316,1.226,6.884,3.675C375.788,30.248,376.572,33.797,376.572,38.442z
			 M361.358,38.442c0,4.05,0.476,6.998,1.428,8.846c0.952,1.847,2.469,2.771,4.551,2.771c2.107,0,3.634-0.937,4.58-2.809
			c0.945-1.873,1.418-4.809,1.418-8.808c0-3.998-0.473-6.928-1.418-8.787c-0.946-1.86-2.473-2.79-4.58-2.79
			c-2.082,0-3.599,0.917-4.551,2.752C361.834,31.451,361.358,34.394,361.358,38.442z"/>
		<path fill="#4D4E4E" d="M398.87,38.442c0,4.812-0.759,8.404-2.275,10.778s-3.837,3.561-6.96,3.561
			c-2.996,0-5.274-1.216-6.836-3.646s-2.342-5.995-2.342-10.692c0-4.849,0.755-8.447,2.266-10.797
			c1.511-2.348,3.814-3.522,6.912-3.522c3.021,0,5.316,1.226,6.884,3.675C398.086,30.248,398.87,33.797,398.87,38.442z
			 M383.656,38.442c0,4.05,0.476,6.998,1.428,8.846c0.952,1.847,2.469,2.771,4.551,2.771c2.107,0,3.634-0.937,4.58-2.809
			c0.945-1.873,1.418-4.809,1.418-8.808c0-3.998-0.473-6.928-1.418-8.787c-0.946-1.86-2.473-2.79-4.58-2.79
			c-2.082,0-3.599,0.917-4.551,2.752C384.131,31.451,383.656,34.394,383.656,38.442z"/>
		<path fill="#4D4E4E" d="M421.169,38.442c0,4.812-0.759,8.404-2.275,10.778s-3.837,3.561-6.96,3.561
			c-2.996,0-5.274-1.216-6.836-3.646s-2.342-5.995-2.342-10.692c0-4.849,0.755-8.447,2.266-10.797
			c1.511-2.348,3.814-3.522,6.912-3.522c3.021,0,5.316,1.226,6.884,3.675C420.384,30.248,421.169,33.797,421.169,38.442z
			 M405.955,38.442c0,4.05,0.476,6.998,1.428,8.846c0.952,1.847,2.469,2.771,4.551,2.771c2.107,0,3.634-0.937,4.58-2.809
			c0.945-1.873,1.418-4.809,1.418-8.808c0-3.998-0.473-6.928-1.418-8.787c-0.946-1.86-2.473-2.79-4.58-2.79
			c-2.082,0-3.599,0.917-4.551,2.752C406.43,31.451,405.955,34.394,405.955,38.442z"/>
		<path fill="#4D4E4E" d="M437.031,24.562L426.653,52.4h-3.161l10.378-27.839H437.031z"/>
		<path fill="#4D4E4E" d="M439.03,43.394v-2.895h9.35v2.895H439.03z"/>
	</g>
	<g>
		<path fill="#00738D" d="M280.881,86.28h19.842c0.112,0.015,0.168,0.07,0.168,0.168v1.888c0,0.112-0.056,0.168-0.168,0.168h-7.467
			v0.168c1.063,0.573,1.888,1.748,2.476,3.523l0.083,0.608h4.908c0.112,0.015,0.168,0.07,0.168,0.168v1.888
			c0,0.112-0.056,0.168-0.168,0.168h-4.719c0,2.111-1.294,4.167-3.881,6.167c-2.293,1.314-3.922,1.972-4.887,1.972
			c0,0.056-0.057,0.084-0.168,0.084l10.655,13.802v0.167h-4.048c-0.042,0-4.161-5.341-12.354-16.024v-0.084h1.279
			c4.53,0,7.25-1.629,8.159-4.888c0.056-0.391,0.084-0.706,0.084-0.943v-0.252h-9.963c-0.112,0-0.168-0.056-0.168-0.168v-1.888
			c0.014-0.111,0.069-0.168,0.168-0.168h9.879c-0.336-1.272-1.049-2.307-2.14-3.104c-1.51-0.797-2.888-1.195-4.132-1.195h-3.607
			c-0.112,0-0.168-0.056-0.168-0.168v-1.888C280.727,86.337,280.783,86.28,280.881,86.28z"/>
		<path fill="#00738D" d="M325.986,117.114h-3.98V91.507c0-2.13,0.064-4.146,0.196-6.046c-0.344,0.344-0.729,0.704-1.155,1.081
			s-2.376,1.975-5.849,4.792l-2.163-2.801l9.511-7.349h3.44V117.114z"/>
		<path fill="#00738D" d="M350.881,95.168c3.785,0,6.763,0.938,8.934,2.814s3.256,4.444,3.256,7.704c0,3.72-1.184,6.636-3.551,8.749
			c-2.368,2.113-5.632,3.17-9.794,3.17c-4.047,0-7.135-0.646-9.265-1.941v-3.932c1.146,0.737,2.572,1.314,4.276,1.732
			c1.703,0.418,3.383,0.627,5.038,0.627c2.883,0,5.124-0.68,6.721-2.04c1.598-1.359,2.396-3.326,2.396-5.898
			c0-5.014-3.072-7.52-9.216-7.52c-1.557,0-3.637,0.237-6.242,0.712l-2.113-1.352l1.352-16.81h17.866v3.76h-14.377l-0.909,10.789
			C347.137,95.356,349.014,95.168,350.881,95.168z"/>
		<path fill="#00738D" d="M392.243,99.101c0,6.209-0.979,10.846-2.937,13.909c-1.958,3.064-4.952,4.596-8.982,4.596
			c-3.867,0-6.808-1.568-8.823-4.706c-2.015-3.137-3.022-7.737-3.022-13.799c0-6.259,0.975-10.903,2.925-13.935
			c1.949-3.031,4.923-4.547,8.921-4.547c3.898,0,6.86,1.582,8.884,4.743C391.231,88.524,392.243,93.104,392.243,99.101z
			 M372.607,99.101c0,5.227,0.614,9.031,1.843,11.415s3.187,3.576,5.874,3.576c2.719,0,4.689-1.208,5.91-3.625
			s1.831-6.206,1.831-11.366c0-5.161-0.61-8.941-1.831-11.342s-3.191-3.601-5.91-3.601c-2.688,0-4.646,1.184-5.874,3.552
			C373.221,90.077,372.607,93.874,372.607,99.101z"/>
		<path fill="#00738D" d="M421.021,99.101c0,6.209-0.979,10.846-2.937,13.909c-1.958,3.064-4.952,4.596-8.982,4.596
			c-3.867,0-6.808-1.568-8.823-4.706c-2.015-3.137-3.022-7.737-3.022-13.799c0-6.259,0.975-10.903,2.925-13.935
			c1.949-3.031,4.923-4.547,8.921-4.547c3.898,0,6.86,1.582,8.884,4.743C420.009,88.524,421.021,93.104,421.021,99.101z
			 M401.385,99.101c0,5.227,0.614,9.031,1.843,11.415s3.187,3.576,5.874,3.576c2.719,0,4.689-1.208,5.91-3.625
			s1.831-6.206,1.831-11.366c0-5.161-0.61-8.941-1.831-11.342s-3.191-3.601-5.91-3.601c-2.688,0-4.646,1.184-5.874,3.552
			C402,90.077,401.385,93.874,401.385,99.101z"/>
		<path fill="#00738D" d="M441.492,81.185l-13.394,35.93h-4.08l13.394-35.93H441.492z"/>
		<path fill="#00738D" d="M444.073,105.49v-3.735h12.066v3.735H444.073z"/>
	</g>
	<line fill="none" stroke="#F75455" stroke-miterlimit="10" x1="307.965" y1="39.802" x2="456.761" y2="39.802"/>
</g>
<g id="Layer_3">
</g>
<g id="Layer_4">
</g>
<g id="Layer_5">
</g>
<g id="Layer_6">
</g>
<g id="Layer_7" display="none">
</g>
</svg>
