<?xml version="1.0" encoding="utf-8"?>
<!-- Generator: Adobe Illustrator 17.0.0, SVG Export Plug-In . SVG Version: 6.00 Build 0)  -->
<!DOCTYPE svg PUBLIC "-//W3C//DTD SVG 1.1//EN" "http://www.w3.org/Graphics/SVG/1.1/DTD/svg11.dtd">
<svg version="1.1" id="Layer_1" xmlns="http://www.w3.org/2000/svg" xmlns:xlink="http://www.w3.org/1999/xlink" x="0px" y="0px"
	 width="210px" height="60px" viewBox="0 0 210 60" enable-background="new 0 0 210 60" xml:space="preserve">
<g>
	<g>
		<g>
			<g>
				<path fill="#808080" d="M190.177,3.581h-2.778V2.578h6.764v1.003h-2.792v8.133h-1.193V3.581z"/>
				<path fill="#808080" d="M202.88,7.702c-0.068-1.274-0.149-2.806-0.136-3.945h-0.041c-0.311,1.071-0.691,2.21-1.152,3.47
					l-1.613,4.433h-0.894l-1.478-4.351c-0.434-1.288-0.8-2.467-1.057-3.552h-0.027c-0.027,1.139-0.095,2.67-0.176,4.04l-0.244,3.917
					h-1.125l0.638-9.136h1.505l1.559,4.419c0.38,1.125,0.691,2.128,0.922,3.077h0.041c0.231-0.922,0.556-1.925,0.962-3.077
					l1.627-4.419h1.505l0.569,9.136h-1.152L202.88,7.702z"/>
			</g>
		</g>
	</g>
	<polygon fill="#05748E" points="163.398,55.405 82.488,55.405 82.488,12.45 184.398,12.45 	"/>
	<g>
		<path fill="#010101" d="M5.737,20.372h14.871v1.176H7.082v11.174h11.342v1.176H7.082V46.92h13.946v1.176H5.737V20.372z"/>
		<path fill="#010101" d="M38.836,35.579c0.084-3.277-0.756-6.889-4.957-6.889c-2.856,0-5.293,1.428-6.553,2.436l-0.673-1.008
			c1.261-0.924,4.033-2.604,7.31-2.604c4.705,0,6.133,3.528,6.133,7.561v13.022h-1.092l-0.168-2.688h-0.084
			c-2.101,1.68-4.621,3.192-7.31,3.192c-3.108,0-5.797-1.596-5.797-5.419C25.645,38.687,29.762,36.586,38.836,35.579z
			 M31.526,47.424c2.437,0,4.621-1.176,7.31-3.444v-7.31c-8.821,1.008-11.846,3.025-11.846,6.469
			C26.99,46.249,29.089,47.424,31.526,47.424z"/>
		<path fill="#010101" d="M45.804,44.82c1.68,1.428,3.528,2.604,6.553,2.604c3.361,0,5.125-2.016,5.125-4.285
			c0-2.688-2.688-3.865-5.041-4.705c-3.108-1.092-6.553-2.269-6.553-5.713c0-2.772,2.185-5.209,6.301-5.209
			c2.017,0,4.117,0.84,5.545,2.016l-0.756,1.008c-1.345-1.008-2.772-1.848-4.873-1.848c-3.36,0-4.873,1.974-4.873,3.949
			c0,2.352,2.437,3.36,4.873,4.285c3.192,1.218,6.722,2.184,6.722,6.133c0,2.94-2.353,5.545-6.554,5.545
			c-3.024,0-5.545-1.26-7.309-2.772L45.804,44.82z"/>
		<path fill="#010101" d="M63.192,56.162c2.521,0,4.285-2.437,5.377-5.713l0.588-1.849l-8.317-20.583h1.429l5.125,13.19
			c0.672,1.68,1.512,3.865,2.268,5.629h0.169c0.672-1.764,1.344-3.949,1.932-5.629l4.537-13.19h1.344l-8.065,22.936
			c-1.008,3.108-3.024,6.469-6.469,6.469c-0.672,0-1.428-0.168-1.933-0.42l0.336-1.176C61.932,55.994,62.604,56.162,63.192,56.162z"
			/>
		<path fill="#FFFFFF" d="M89.987,20.54H93.6l2.898,14.997c0.546,2.982,1.092,5.923,1.638,8.905h0.168
			c0.589-2.982,1.261-5.965,1.933-8.905l3.823-14.997h3.192l3.822,14.997c0.63,2.898,1.303,5.923,1.975,8.905h0.168
			c0.546-2.982,1.05-5.965,1.555-8.905l2.898-14.997h3.402l-5.713,27.557h-4.243l-4.158-16.593
			c-0.463-2.143-0.925-4.117-1.303-6.259h-0.168c-0.462,2.143-0.924,4.117-1.386,6.259l-4.117,16.593h-4.159L89.987,20.54z"/>
		<path fill="#FFFFFF" d="M124.763,21.254c0-1.344,1.05-2.227,2.395-2.227c1.344,0,2.395,0.882,2.395,2.227
			c0,1.302-1.051,2.227-2.395,2.227C125.813,23.481,124.763,22.556,124.763,21.254z M125.393,27.681h3.445v20.416h-3.445V27.681z"/>
		<path fill="#FFFFFF" d="M135.725,18.188h3.445v26.044c0,1.092,0.462,1.512,0.966,1.512c0.21,0,0.378,0,0.756-0.084l0.462,2.604
			c-0.462,0.21-1.05,0.336-1.974,0.336c-2.604,0-3.655-1.638-3.655-4.621V18.188z"/>
		<path fill="#FFFFFF" d="M146.434,18.188h3.445v26.044c0,1.092,0.462,1.512,0.966,1.512c0.21,0,0.378,0,0.756-0.084l0.462,2.604
			c-0.462,0.21-1.05,0.336-1.974,0.336c-2.604,0-3.655-1.638-3.655-4.621V18.188z"/>
	</g>
</g>
</svg>
