<?xml version="1.0" encoding="utf-8"?>
<!-- Generator: Adobe Illustrator 17.0.0, SVG Export Plug-In . SVG Version: 6.00 Build 0)  -->
<!DOCTYPE svg PUBLIC "-//W3C//DTD SVG 1.1//EN" "http://www.w3.org/Graphics/SVG/1.1/DTD/svg11.dtd">
<svg version="1.1" xmlns="http://www.w3.org/2000/svg" xmlns:xlink="http://www.w3.org/1999/xlink" x="0px" y="0px"
	 width="237.528px" height="81.904px" viewBox="0 0 237.528 81.904" enable-background="new 0 0 237.528 81.904"
	 xml:space="preserve">
<g id="Layer_1">
</g>
<g id="Layer_2">
	<g>
		<g>
			<g>
				<path fill="#B5B5B5" d="M210.854,17.041h-2.778v-1.003h6.764v1.003h-2.792v8.133h-1.193V17.041z"/>
				<path fill="#B5B5B5" d="M223.558,21.162c-0.068-1.274-0.149-2.806-0.136-3.945h-0.041c-0.312,1.071-0.691,2.21-1.152,3.47
					l-1.613,4.433h-0.894l-1.478-4.351c-0.434-1.288-0.8-2.467-1.057-3.552h-0.027c-0.027,1.139-0.095,2.67-0.176,4.04l-0.244,3.917
					h-1.125l0.638-9.136h1.505l1.559,4.419c0.38,1.125,0.691,2.128,0.922,3.077h0.041c0.231-0.922,0.556-1.925,0.962-3.077
					l1.627-4.419h1.505l0.569,9.136h-1.152L223.558,21.162z"/>
			</g>
		</g>
	</g>
	<polygon fill="#00738D" points="184.076,68.865 98.166,68.865 98.166,25.91 205.076,25.91 	"/>
	<g>
		<path fill="#FFFFFF" d="M21.414,33.831h14.871v1.176H22.759v11.174H34.1v1.176H22.759V60.38h13.946v1.176H21.414V33.831z"/>
		<path fill="#FFFFFF" d="M54.513,49.039c0.084-3.277-0.756-6.889-4.957-6.889c-2.856,0-5.293,1.428-6.553,2.436l-0.673-1.008
			c1.261-0.924,4.033-2.604,7.31-2.604c4.705,0,6.133,3.528,6.133,7.561v13.022H54.68l-0.168-2.688h-0.084
			c-2.101,1.68-4.621,3.192-7.31,3.192c-3.108,0-5.797-1.596-5.797-5.419C41.322,52.147,45.439,50.046,54.513,49.039z
			 M47.203,60.884c2.437,0,4.621-1.176,7.31-3.444v-7.31c-8.821,1.008-11.846,3.025-11.846,6.469
			C42.667,59.708,44.766,60.884,47.203,60.884z"/>
		<path fill="#FFFFFF" d="M61.481,58.28c1.68,1.428,3.528,2.604,6.553,2.604c3.361,0,5.125-2.016,5.125-4.285
			c0-2.688-2.688-3.865-5.041-4.705c-3.108-1.092-6.553-2.269-6.553-5.713c0-2.772,2.185-5.209,6.301-5.209
			c2.017,0,4.117,0.84,5.545,2.016l-0.756,1.008c-1.345-1.008-2.772-1.848-4.873-1.848c-3.36,0-4.873,1.974-4.873,3.949
			c0,2.352,2.437,3.36,4.873,4.285c3.192,1.218,6.722,2.184,6.722,6.133c0,2.94-2.353,5.545-6.554,5.545
			c-3.024,0-5.545-1.26-7.309-2.772L61.481,58.28z"/>
		<path fill="#FFFFFF" d="M78.869,69.622c2.521,0,4.285-2.437,5.377-5.713l0.588-1.849l-8.317-20.583h1.429l5.125,13.19
			c0.672,1.68,1.512,3.865,2.268,5.629h0.169c0.672-1.764,1.344-3.949,1.932-5.629l4.537-13.19h1.344l-8.065,22.936
			c-1.008,3.108-3.024,6.469-6.469,6.469c-0.672,0-1.428-0.168-1.933-0.42l0.336-1.176C77.609,69.454,78.281,69.622,78.869,69.622z"
			/>
		<path fill="#FFFFFF" d="M105.664,33.999h3.613l2.898,14.997c0.546,2.982,1.092,5.923,1.638,8.905h0.168
			c0.589-2.982,1.261-5.965,1.933-8.905l3.823-14.997h3.192l3.822,14.997c0.63,2.898,1.303,5.923,1.975,8.905h0.168
			c0.546-2.982,1.05-5.965,1.555-8.905l2.898-14.997h3.402l-5.713,27.557h-4.243l-4.158-16.593
			c-0.463-2.143-0.925-4.117-1.303-6.259h-0.168c-0.462,2.143-0.924,4.117-1.386,6.259l-4.117,16.593h-4.159L105.664,33.999z"/>
		<path fill="#FFFFFF" d="M140.44,34.714c0-1.344,1.05-2.227,2.395-2.227c1.344,0,2.395,0.882,2.395,2.227
			c0,1.302-1.051,2.227-2.395,2.227C141.49,36.94,140.44,36.016,140.44,34.714z M141.07,41.141h3.445v20.416h-3.445V41.141z"/>
		<path fill="#FFFFFF" d="M151.402,31.647h3.445v26.044c0,1.092,0.462,1.512,0.966,1.512c0.21,0,0.378,0,0.756-0.084l0.462,2.604
			c-0.462,0.21-1.05,0.336-1.974,0.336c-2.604,0-3.655-1.638-3.655-4.621V31.647z"/>
		<path fill="#FFFFFF" d="M162.111,31.647h3.445v26.044c0,1.092,0.462,1.512,0.966,1.512c0.21,0,0.378,0,0.756-0.084l0.462,2.604
			c-0.462,0.21-1.05,0.336-1.974,0.336c-2.604,0-3.655-1.638-3.655-4.621V31.647z"/>
	</g>
</g>
<g id="Layer_3">
</g>
<g id="Layer_4">
</g>
<g id="Layer_5">
</g>
<g id="Layer_6">
</g>
<g id="Layer_7" display="none">
</g>
</svg>
