<?xml version="1.0" encoding="utf-8"?>
<!-- Generator: Adobe Illustrator 17.0.0, SVG Export Plug-In . SVG Version: 6.00 Build 0)  -->
<!DOCTYPE svg PUBLIC "-//W3C//DTD SVG 1.1//EN" "http://www.w3.org/Graphics/SVG/1.1/DTD/svg11.dtd">
<svg version="1.1" xmlns="http://www.w3.org/2000/svg" xmlns:xlink="http://www.w3.org/1999/xlink" x="0px" y="0px"
	 width="110.403px" height="110.403px" viewBox="0 0 110.403 110.403" enable-background="new 0 0 110.403 110.403"
	 xml:space="preserve">
<g id="Layer_1">
</g>
<g id="Layer_2">
	<rect x="0" y="98.403" fill="#C73B3D" width="12" height="12"/>
	<rect x="98.403" y="0" fill="#C73B3D" width="12" height="12"/>
	<g>
		<polygon fill="#F75455" points="49.02,0 24.777,24.243 24.243,24.777 0,49.02 0,110.403 54.935,55.469 55.469,54.935 110.403,0 		
			"/>
		<g>
			<path fill="#FFFFFF" d="M10.01,63.595l4.789-4.79l0.93,0.929l-3.643,3.642l2.854,2.853l3.365-3.365l0.916,0.917l-3.365,3.365
				l3.883,3.883l-1.148,1.148L10.01,63.595z"/>
			<path fill="#FFFFFF" d="M25.602,57.119l-3.457,3.456l3.094,3.094l3.854-3.853l0.93,0.929l-5.002,5.001l-8.582-8.58l4.805-4.804
				l0.928,0.929l-3.654,3.655l2.713,2.712l3.455-3.457L25.602,57.119z"/>
			<path fill="#FFFFFF" d="M30.252,55.116l1.777,3.621l-1.188,1.188l-5.561-11.603l1.387-1.386l11.615,5.546l-1.227,1.228
				l-3.65-1.749L30.252,55.116z M32.305,51.333l-3.342-1.599c-0.758-0.363-1.4-0.74-2.027-1.104l-0.027,0.026
				c0.377,0.641,0.754,1.308,1.105,2.002l1.611,3.354L32.305,51.333z"/>
			<path fill="#FFFFFF" d="M32.627,42.862l-2.705,2.705l-0.941-0.942l6.584-6.584l0.941,0.942l-2.717,2.718l7.639,7.639L40.266,50.5
				L32.627,42.862z"/>
			<path fill="#FFFFFF" d="M37.705,35.899l5.08,5.08c1.922,1.923,3.621,1.854,4.809,0.666c1.32-1.319,1.324-3.004-0.574-4.9
				l-5.08-5.081l1.162-1.162l5.004,5.004c2.635,2.635,2.279,5.156,0.354,7.082c-1.822,1.821-4.201,2.188-6.861-0.473l-5.055-5.055
				L37.705,35.899z"/>
			<path fill="#FFFFFF" d="M45.211,28.622c0.467-0.695,1.234-1.59,2.027-2.382c1.227-1.227,2.234-1.803,3.271-1.873
				c0.832-0.067,1.668,0.268,2.33,0.93c1.133,1.133,1.146,2.624,0.514,3.866l0.039,0.039c0.914-0.457,1.936-0.255,3.037,0.425
				c1.486,0.907,2.525,1.523,3.041,1.669l-1.188,1.188c-0.387-0.097-1.322-0.638-2.643-1.456c-1.449-0.92-2.369-0.891-3.449,0.113
				l-1.082,1.082l3.717,3.718l-1.148,1.148L45.211,28.622z M50.268,31.382l1.176-1.174c1.227-1.227,1.355-2.654,0.375-3.635
				c-1.107-1.108-2.422-0.76-3.65,0.441c-0.553,0.554-0.898,1.001-1.031,1.237L50.268,31.382z"/>
			<path fill="#FFFFFF" d="M61.362,21.358l-3.455,3.457L61,27.909l3.852-3.853l0.93,0.929l-5.002,5.001l-8.58-8.581l4.803-4.803
				l0.93,0.929l-3.654,3.655l2.711,2.712l3.457-3.457L61.362,21.358z"/>
			<path fill="#FFFFFF" d="M58.809,15.025c0.598-0.801,1.352-1.709,2.264-2.62c1.648-1.649,3.191-2.455,4.67-2.533
				c1.492-0.092,2.947,0.439,4.336,1.828c1.4,1.4,2.098,2.995,2.055,4.615c-0.027,1.634-0.967,3.438-2.695,5.167
				c-0.818,0.818-1.545,1.466-2.188,1.983L58.809,15.025z M67.545,21.465c0.342-0.239,0.775-0.648,1.225-1.097
				c2.455-2.455,2.463-5.112,0.146-7.429c-2.012-2.038-4.486-2.135-6.914,0.292c-0.594,0.594-0.992,1.094-1.23,1.46L67.545,21.465z"
				/>
		</g>
	</g>
</g>
<g id="Layer_3">
</g>
<g id="Layer_4">
</g>
<g id="Layer_5">
</g>
<g id="Layer_6">
</g>
<g id="Layer_7" display="none">
</g>
</svg>
