<?xml version="1.0" encoding="utf-8"?>
<!-- Generator: Adobe Illustrator 17.0.0, SVG Export Plug-In . SVG Version: 6.00 Build 0)  -->
<!DOCTYPE svg PUBLIC "-//W3C//DTD SVG 1.1//EN" "http://www.w3.org/Graphics/SVG/1.1/DTD/svg11.dtd">
<svg version="1.1" id="Layer_1" xmlns="http://www.w3.org/2000/svg" xmlns:xlink="http://www.w3.org/1999/xlink" x="0px" y="0px"
	 width="82px" height="92px" viewBox="0 0 82 92" enable-background="new 0 0 82 92" xml:space="preserve">
<g>
	<path fill="#FFFFFF" d="M40.301,1.203c0.467,0,0.933,0,1.4,0c0.151,0.077,0.295,0.172,0.453,0.229
		c6.073,2.208,12.147,4.411,18.22,6.617c5.882,2.136,11.761,4.279,17.646,6.408c1.217,0.44,1.935,1.245,2.052,2.553
		c0.112,1.248,0.235,2.495,0.341,3.744c0.803,9.449,0.714,18.872-0.932,28.237c-1.358,7.724-3.76,15.083-7.955,21.768
		c-5.974,9.521-14.239,16.058-25.151,19.075c-1.422,0.393-2.883,0.646-4.326,0.964c-0.7,0-1.4,0-2.1,0
		c-0.103-0.048-0.201-0.122-0.308-0.139c-10.005-1.593-18.207-6.413-24.824-13.989C9.383,70.446,5.983,63.151,3.893,55.215
		C0.592,42.678,0.618,29.963,1.891,17.181c0.145-1.456,0.901-2.314,2.246-2.8c9.391-3.391,18.776-6.795,28.159-10.206
		C34.971,3.202,37.633,2.195,40.301,1.203z M52.486,38.899c0-0.312,0-0.627,0-0.942c0-2.391,0.017-4.782-0.004-7.173
		c-0.044-5.017-3.631-8.573-8.638-8.582c-1.866-0.003-3.732-0.005-5.598,0.003c-5.139,0.021-8.682,3.531-8.729,8.666
		c-0.022,2.362-0.004,4.723-0.005,7.085c0,0.333,0,0.667,0,0.986c-0.235,0.032-0.32,0.051-0.405,0.053
		c-3.461,0.113-4.904,1.594-4.905,5.037c0,5.103,0,10.205,0,15.308c0,3.234,1.609,4.858,4.815,4.858
		c8.018,0.001,16.037-0.001,24.055,0.001c3.069,0.001,4.728-1.677,4.725-4.776c-0.004-5.015-0.009-10.03-0.001-15.045
		c0.006-3.851-1.238-5.182-5.083-5.395C52.687,38.981,52.661,38.964,52.486,38.899z"/>
	<path fill="#FFFFFF" d="M46.895,38.974c-3.965,0-7.804,0-11.628,0c-0.052-0.062-0.121-0.105-0.122-0.149
		c-0.011-2.823-0.072-5.647,0.001-8.468c0.04-1.535,1.229-2.538,2.782-2.551c2.038-0.017,4.076-0.017,6.114,0
		c1.57,0.013,2.748,0.986,2.805,2.526c0.094,2.559,0.04,5.123,0.048,7.684C46.896,38.302,46.895,38.588,46.895,38.974z"/>
	<path fill="#FFFFFF" d="M39.247,54.534c0-0.524-0.012-1.049,0.003-1.573c0.028-1.01-0.018-1.852-0.913-2.692
		c-1.372-1.288-1.058-3.596,0.379-4.823c1.45-1.238,3.622-1.101,4.88,0.307c1.298,1.454,1.21,3.668-0.277,4.924
		c-0.465,0.393-0.586,0.773-0.577,1.331c0.027,1.776,0.014,3.554,0.007,5.331c-0.004,0.984-0.266,1.243-1.231,1.26
		c-2.268,0.039-2.268,0.039-2.27-2.23C39.247,55.758,39.247,55.146,39.247,54.534z"/>
</g>
</svg>
